<svg width="1440" height="1946" viewBox="0 0 1440 1946" fill="none" xmlns="http://www.w3.org/2000/svg">
<g clip-path="url(#clip0)">
<path d="M-50.6688 1517.36L-6.04082 1564.58C38.5872 1611.8 127.843 1706.24 216.548 1721.51C305.248 1736.19 393.407 1673.2 481.833 1648.37C570.264 1624.43 658.961 1638.67 747.503 1630.63C836.046 1622.58 924.412 1589.29 1013.17 1612.88C1101.93 1635.58 1191.08 1715.17 1279.95 1753.61C1368.82 1792.65 1457.41 1792.03 1501.71 1791.73L1546.01 1791.42L1543.69 1458.72L1499.39 1459.03C1455.1 1459.34 1366.5 1459.96 1277.91 1460.58C1189.31 1461.19 1100.72 1461.81 1012.13 1462.43C923.532 1463.05 834.938 1463.66 746.345 1464.28C657.751 1464.9 569.157 1465.51 480.563 1466.13C391.969 1466.75 303.375 1467.37 214.782 1467.98C126.188 1468.6 37.5939 1469.22 -6.70301 1469.53L-50.9999 1469.83L-50.6688 1517.36Z" fill="#FFEEEA"/>
</g>
<g clip-path="url(#clip1)">
<path d="M-71.883 565.478L4.0538 492.449C79.8516 420.206 231.934 272.97 361.434 253.359C490.935 233.749 598.549 337.837 715.092 391.464C831.843 443.912 957.522 445.9 1072.43 508.755C1187.34 571.61 1290.79 699.259 1414.97 709.69C1539.02 720.906 1683.46 616.866 1818.62 565.251C1953.92 512.851 2079.6 514.838 2142.69 514.457L2205.63 514.862L2116.7 1017.51L2055.59 1006.7C1994.49 995.887 1872.28 974.265 1750.08 952.643C1627.87 931.021 1505.67 909.398 1383.46 887.776C1261.26 866.154 1139.05 844.532 1016.85 822.909C894.642 801.287 772.437 779.665 650.232 758.043C528.027 736.42 405.821 714.798 283.616 693.176C161.411 671.554 39.2054 649.931 -21.8972 639.12L-82.9999 628.309L-71.883 565.478Z" fill="#FFEEEA"/>
</g>
<rect x="-52.7313" y="629" width="1573.06" height="852.436" transform="rotate(3.88276 -52.7313 629)" fill="#FFEEEA"/>
<defs>
<clipPath id="clip0">
<rect width="1594.73" height="475.287" fill="white" transform="matrix(0.999976 -0.00696624 -0.00696624 -0.999976 -47.689 1945.11)"/>
</clipPath>
<clipPath id="clip1">
<rect width="2233.86" height="638.068" fill="white" transform="translate(28.1692) rotate(10.0337)"/>
</clipPath>
</defs>
</svg>
