<svg width="1440" height="488" viewBox="0 0 1440 488" fill="none" xmlns="http://www.w3.org/2000/svg">
<g clip-path="url(#clip0)">
<path d="M-50.6688 59.3617L-6.04082 106.581C38.5872 153.8 127.843 248.237 216.548 263.512C305.248 278.193 393.407 215.196 481.833 190.369C570.264 166.434 658.961 180.669 747.503 172.626C836.046 164.583 924.412 131.29 1013.17 154.882C1101.93 177.583 1191.08 257.169 1279.95 295.613C1368.82 334.652 1457.41 334.035 1501.71 333.726L1546.01 333.418L1543.69 0.724917L1499.39 1.03351C1455.1 1.3421 1366.5 1.95928 1277.91 2.57646C1189.31 3.19364 1100.72 3.81082 1012.13 4.428C923.532 5.04518 834.938 5.66236 746.345 6.27955C657.751 6.89673 569.157 7.51391 480.563 8.13109C391.969 8.74827 303.375 9.36545 214.782 9.98263C126.188 10.5998 37.5939 11.217 -6.70301 11.5256L-50.9999 11.8342L-50.6688 59.3617Z" fill="#FFEEEA"/>
</g>
<defs>
<clipPath id="clip0">
<rect width="1594.73" height="475.287" fill="white" transform="matrix(0.999976 -0.00696624 -0.00696624 -0.999976 -47.689 487.109)"/>
</clipPath>
</defs>
</svg>
