<svg width="1440" height="1018" viewBox="0 0 1440 1018" fill="none" xmlns="http://www.w3.org/2000/svg">
<g clip-path="url(#clip0)">
<path d="M-71.883 565.478L4.0538 492.449C79.8516 420.206 231.934 272.97 361.434 253.359C490.935 233.749 598.549 337.837 715.092 391.464C831.843 443.912 957.522 445.9 1072.43 508.755C1187.34 571.61 1290.79 699.259 1414.97 709.69C1539.02 720.906 1683.46 616.866 1818.62 565.251C1953.92 512.851 2079.6 514.838 2142.69 514.457L2205.63 514.862L2116.7 1017.51L2055.59 1006.7C1994.49 995.887 1872.28 974.265 1750.08 952.643C1627.87 931.021 1505.67 909.398 1383.46 887.776C1261.26 866.154 1139.05 844.532 1016.85 822.909C894.642 801.287 772.437 779.665 650.232 758.043C528.027 736.42 405.821 714.798 283.616 693.176C161.411 671.554 39.2054 649.931 -21.8972 639.12L-82.9999 628.309L-71.883 565.478Z" fill="#FFEEEA"/>
</g>
<defs>
<clipPath id="clip0">
<rect width="2233.86" height="638.068" fill="white" transform="translate(28.1692) rotate(10.0337)"/>
</clipPath>
</defs>
</svg>
